<svg width="2547" height="1932" xmlns="http://www.w3.org/2000/svg" xmlns:xlink="http://www.w3.org/1999/xlink" xml:space="preserve" overflow="hidden"><g transform="translate(-214 -546)"><rect x="226.5" y="548.5" width="483" height="429" stroke="#434343" stroke-width="4.58333" stroke-miterlimit="8" fill="#A5A5A5"/><text fill="#FFFFFF" font-family="Calibri,Calibri_MSFontService,sans-serif" font-weight="400" font-size="83" transform="matrix(1 0 0 1 372.682 790)">Study</text><rect x="1245.5" y="548.5" width="483" height="429" stroke="#434343" stroke-width="4.58333" stroke-miterlimit="8" fill="#A5A5A5"/><text fill="#FFFFFF" font-family="Calibri,Calibri_MSFontService,sans-serif" font-weight="400" font-size="83" transform="matrix(1 0 0 1 1346.25 790)">Subjects</text><rect x="2263.5" y="548.5" width="484" height="429" stroke="#434343" stroke-width="4.58333" stroke-miterlimit="8" fill="#A5A5A5"/><text fill="#FFFFFF" font-family="Calibri,Calibri_MSFontService,sans-serif" font-weight="400" font-size="83" transform="matrix(1 0 0 1 2299.27 790)">Clinical Data</text><rect x="229.5" y="1298.5" width="484" height="429" stroke="#434343" stroke-width="4.58333" stroke-miterlimit="8" fill="#A5A5A5"/><text fill="#FFFFFF" font-family="Calibri,Calibri_MSFontService,sans-serif" font-weight="400" font-size="83" transform="matrix(1 0 0 1 342.837 1540)">Dataset</text><rect x="1245.5" y="1300.5" width="483" height="429" stroke="#434343" stroke-width="4.58333" stroke-miterlimit="8" fill="#A5A5A5"/><text fill="#FFFFFF" font-family="Calibri,Calibri_MSFontService,sans-serif" font-weight="400" font-size="83" transform="matrix(1 0 0 1 1383.21 1493)">Omics </text><text fill="#FFFFFF" font-family="Calibri,Calibri_MSFontService,sans-serif" font-weight="400" font-size="83" transform="matrix(1 0 0 1 1362.86 1592)">Sample</text><rect x="2260.5" y="1297.5" width="483" height="429" stroke="#434343" stroke-width="4.58333" stroke-miterlimit="8" fill="#A5A5A5"/><text fill="#FFFFFF" font-family="Calibri,Calibri_MSFontService,sans-serif" font-weight="400" font-size="83" transform="matrix(1 0 0 1 2338.9 1539)">Metadata</text><rect x="2263.5" y="2046.5" width="484" height="429" stroke="#434343" stroke-width="4.58333" stroke-miterlimit="8" fill="#A5A5A5"/><text fill="#FFFFFF" font-family="Calibri,Calibri_MSFontService,sans-serif" font-weight="400" font-size="83" transform="matrix(1 0 0 1 2301.25 2288)">Level 0 Data</text><rect x="226.5" y="2046.5" width="483" height="420" stroke="#434343" stroke-width="4.58333" stroke-miterlimit="8" fill="#A5A5A5"/><text fill="#FFFFFF" font-family="Calibri,Calibri_MSFontService,sans-serif" font-weight="400" font-size="83" transform="matrix(1 0 0 1 263.599 2284)">Level 1 Data</text><path d="M709 757.844 1218.56 757.844 1218.56 768.157 709 768.156ZM1213.4 747.532 1244.34 763 1213.4 778.469Z"/><path d="M1728 757.844 2237.56 757.844 2237.56 768.157 1728 768.156ZM2232.4 747.532 2263.34 763 2232.4 778.469Z"/><path d="M473.156 976.945 476.311 1272.62 465.999 1272.73 462.844 977.055ZM486.568 1267.35 471.43 1298.45 455.632 1267.68Z"/><path d="M713.02 1507.84 1219.15 1509.85 1219.11 1520.16 712.979 1518.16ZM1214.03 1499.52 1244.91 1515.11 1213.91 1530.46Z"/><path d="M1489.94 977.5 1489.94 1278.15 1483.06 1278.15 1483.06 977.5ZM1500.25 1273.56 1486.5 1301.06 1472.75 1273.56Z"/><path d="M0.0296069-5.15616 506.155-2.24997 506.096 8.06236-0.0296069 5.15616ZM501.059-12.5919 531.907 3.05423 500.881 18.3451Z" transform="matrix(1 0 0 -1 1728 1515.05)"/><path d="M0-5.15625 536.882-5.15625 536.882 751.299 526.57 751.299 526.57 0 531.726 5.15625 0 5.15625ZM547.195 746.144 531.726 777.081 516.257 746.144Z" transform="matrix(1.83697e-16 1 1 -1.83697e-16 1486 1729)"/><path d="M5.15595-0.0553394 8.30918 293.73-2.00273 293.84-5.15595 0.0553394ZM18.5657 288.463 3.42992 319.564-12.37 288.795Z" transform="matrix(-1 0 0 1 471.43 1727)"/><text font-family="Calibri,Calibri_MSFontService,sans-serif" font-weight="400" font-size="83" transform="matrix(1 0 0 1 722.235 734)">1</text><text font-family="Calibri,Calibri_MSFontService,sans-serif" font-weight="400" font-size="83" transform="matrix(1 0 0 1 1753.64 734)">1</text><text font-family="Calibri,Calibri_MSFontService,sans-serif" font-weight="400" font-size="83" transform="matrix(1 0 0 1 722.235 1475)">1</text><text font-family="Calibri,Calibri_MSFontService,sans-serif" font-weight="400" font-size="83" transform="matrix(1 0 0 1 1753.64 1475)">1</text><text font-family="Calibri,Calibri_MSFontService,sans-serif" font-weight="400" font-size="83" transform="matrix(1 0 0 1 386.478 1039)">1</text><text font-family="Calibri,Calibri_MSFontService,sans-serif" font-weight="400" font-size="83" transform="matrix(1 0 0 1 1410.45 1044)">1</text><text font-family="Calibri,Calibri_MSFontService,sans-serif" font-weight="400" font-size="83" transform="matrix(1 0 0 1 1410.45 1805)">1</text><text font-family="Calibri,Calibri_MSFontService,sans-serif" font-weight="400" font-size="83" transform="matrix(1 0 0 1 391.883 1805)">1</text><text font-family="Calibri,Calibri_MSFontService,sans-serif" font-weight="400" font-size="83" transform="matrix(1 0 0 1 1164.56 732)">N</text><text font-family="Calibri,Calibri_MSFontService,sans-serif" font-weight="400" font-size="83" transform="matrix(1 0 0 1 2194.96 740)">N</text><text font-family="Calibri,Calibri_MSFontService,sans-serif" font-weight="400" font-size="83" transform="matrix(1 0 0 1 1164.56 1487)">N</text><text font-family="Calibri,Calibri_MSFontService,sans-serif" font-weight="400" font-size="83" transform="matrix(1 0 0 1 2194.36 1478)">N</text><text font-family="Calibri,Calibri_MSFontService,sans-serif" font-weight="400" font-size="83" transform="matrix(1 0 0 1 2193.77 2233)">N</text><text font-family="Calibri,Calibri_MSFontService,sans-serif" font-weight="400" font-size="83" transform="matrix(1 0 0 1 1409.65 1286)">N</text><text font-family="Calibri,Calibri_MSFontService,sans-serif" font-weight="400" font-size="83" transform="matrix(1 0 0 1 387.203 1282)">N</text><text font-family="Calibri,Calibri_MSFontService,sans-serif" font-weight="400" font-size="83" transform="matrix(1 0 0 1 391.883 2040)">N</text></g></svg>